# xmcd
#
# Track frame offsets:
#      150
#      21808
#      43278
#      61539
#      80361
#      99901
#      121157
#      144669
# 
# Disc length: 2125 seconds
#
# Revision: 3
# Processed by: cddbd v1.5.2PL0 Copyright (c) Steve Scherf et al.
#
# Submitted via: FreeRIP 1.20
#
DISCID=5d084b08
DTITLE=Zeynep Dizdar - Yolun Açık Ola
DYEAR=1900
DGENRE=blues
TTITLE0=Vazgeç  Gönül
TTITLE1=Nerede Olursan Ol
TTITLE2=Unutma Beni
TTITLE3=Yolun Açık Ola
TTITLE4=Hicaz
TTITLE5=Ben Senin Gölgenim
TTITLE6=Savrulduk
TTITLE7=Bir Hayvanın Günlüğünden
EXTD=
EXTT0=
EXTT1=
EXTT2=
EXTT3=
EXTT4=
EXTT5=
EXTT6=
EXTT7=
PLAYORDER=
